<?xml version="1.0" standalone="no"?>
<!DOCTYPE svg PUBLIC "-//W3C//DTD SVG 20010904//EN"
 "http://www.w3.org/TR/2001/REC-SVG-20010904/DTD/svg10.dtd">
<svg version="1.0" xmlns="http://www.w3.org/2000/svg"
 width="1090.000000pt" height="1090.000000pt" viewBox="0 0 1090.000000 1090.000000"
 preserveAspectRatio="xMidYMid meet">
<metadata>
Created by potrace 1.11, written by Peter Selinger 2001-2013
</metadata>
<g transform="translate(0.000000,1090.000000) scale(0.100000,-0.100000)"
fill="#000000" stroke="none">
<path d="M5159 10805 c-2 -2 -49 -6 -104 -9 -55 -4 -120 -9 -145 -12 -63 -8
-107 -13 -165 -19 -27 -4 -113 -17 -190 -31 -77 -13 -153 -26 -170 -29 -16 -3
-59 -12 -95 -21 -36 -8 -94 -22 -130 -31 -144 -33 -473 -133 -555 -168 -16 -7
-68 -28 -115 -46 -499 -192 -1014 -496 -1449 -854 -178 -147 -463 -425 -612
-597 -57 -67 -109 -126 -114 -132 -17 -18 -148 -188 -175 -226 -14 -20 -52
-74 -85 -120 -270 -380 -526 -892 -678 -1355 -105 -321 -193 -694 -222 -945
-13 -113 -16 -136 -20 -160 -2 -14 -7 -65 -11 -115 -3 -49 -8 -103 -10 -120
-6 -39 -6 -664 0 -690 2 -11 7 -65 10 -120 4 -55 11 -127 16 -160 5 -33 12
-85 15 -115 3 -30 8 -66 10 -80 12 -60 16 -80 31 -165 124 -713 450 -1481 892
-2102 238 -335 561 -693 834 -926 28 -23 60 -50 72 -61 60 -53 264 -211 356
-277 663 -474 1473 -806 2255 -923 141 -21 167 -24 315 -41 243 -28 839 -27
1055 0 17 2 51 7 78 10 26 3 68 8 95 11 69 8 381 62 422 73 19 5 78 19 130 31
255 59 618 179 846 280 461 204 826 422 1194 710 98 77 148 118 274 230 91 80
341 333 426 430 45 52 94 109 109 125 14 17 42 50 61 75 19 25 37 47 40 50 3
3 35 46 72 95 291 394 511 786 689 1233 129 324 233 693 294 1047 15 86 25
146 29 190 4 28 8 66 11 85 10 71 15 121 30 325 6 71 6 574 1 625 -2 19 -7 76
-10 125 -7 90 -12 141 -20 200 -3 17 -8 57 -11 90 -19 175 -94 530 -165 775
-130 448 -357 954 -598 1330 -19 30 -47 73 -61 95 -48 76 -214 309 -231 325
-3 3 -30 37 -60 75 -143 186 -455 516 -630 666 -41 35 -81 70 -89 77 -8 8 -69
58 -135 111 -385 310 -884 601 -1336 778 -63 25 -124 49 -135 54 -49 21 -265
91 -396 127 -272 77 -519 127 -768 157 -30 4 -63 8 -73 10 -10 2 -58 7 -106
10 -48 4 -98 9 -112 12 -29 6 -676 14 -681 8z"/>
</g>
</svg>
